# Blender v2.78 (sub 0) OBJ File: ''
# www.blender.org
mtllib ramp.mtl
o Cube
v 1.500000 -0.500000 -1.000000
v -0.500000 0.500000 -1.000000
v -0.500000 -0.500000 -1.000000
v -0.500000 0.500000 1.000000
v -0.500000 -0.500000 1.000000
v 1.500000 -0.500000 1.000000
vn 0.0000 0.0000 -1.0000
vn -1.0000 0.0000 0.0000
vn 0.0000 -0.0000 1.0000
vn 0.0000 -1.0000 -0.0000
vn 0.4472 0.8944 0.0000
usemtl None
s 1
f 1//1 3//1 2//1
f 3//2 5//2 4//2 2//2
f 5//3 6//3 4//3
f 1//4 6//4 5//4 3//4
f 2//5 4//5 6//5 1//5
